<?xml version="1.0" encoding="utf-8"?>
<!-- Generator: Adobe Illustrator 15.1.0, SVG Export Plug-In . SVG Version: 6.00 Build 0)  -->
<!DOCTYPE svg PUBLIC "-//W3C//DTD SVG 1.1//EN" "http://www.w3.org/Graphics/SVG/1.1/DTD/svg11.dtd">
<svg version="1.1" id="Layer_1" xmlns="http://www.w3.org/2000/svg" xmlns:xlink="http://www.w3.org/1999/xlink" x="0px" y="0px"
	 width="534.5px" height="341.7px" viewBox="0 0 534.5 341.7" style="enable-background:new 0 0 534.5 341.7;" xml:space="preserve"
	>
<style type="text/css">
<![CDATA[
	.st0{fill:#FFFFFF;}
	.st1{display:inline;}
	.st2{display:inline;fill:#FFFFFF;stroke:#000000;stroke-width:24;stroke-miterlimit:10;}
	.st3{display:none;}
]]>
</style>
<g class="st3">
	<rect x="12" y="172.7" class="st2" width="157" height="157"/>
	<rect x="12" y="15.7" class="st2" width="157" height="157"/>
	<rect x="169" y="15.7" class="st2" width="157" height="157"/>
	<rect x="169" y="172.7" class="st2" width="157" height="157"/>
	<rect x="326" y="172.7" class="st2" width="157" height="157"/>
</g>
<g class="st3">
	<polygon class="st1" points="212.5,17.8 95.3,135 38.5,78.1 56.2,60.4 95.3,99.4 194.8,0 	"/>
	<polygon class="st1" points="372.5,171.8 255.3,289 198.5,232.1 216.2,214.4 255.3,253.4 354.8,154 	"/>
	<polygon class="st1" points="534.5,171.8 417.3,289 360.5,232.1 378.2,214.4 417.3,253.4 516.8,154 	"/>
</g>
<g>
	<polygon class="st0" points="378.2,166.1 383.9,171.8 378.2,177.4 370.9,184.7 471,184.7 471,188.4 495,164.4 495,160.7 
		372.8,160.7 	"/>
	<path class="st0" d="M471,246.6v71.1H338V217.6l-24,24v76.1H181v-133h131.7l25.3-25.3V3.7H209.8l8.4,8.4l5.7,5.7l-5.7,5.7l-4.3,4.3
		H314v133H181V60.6l-24,24v76.1H24v-133h131.7l24-24H157H0v157v24v157h157h24h133h24h157V222.6L471,246.6z M157,317.7H24v-133h133
		V317.7z"/>
</g>
<polygon class="st0" points="212.5,17.8 95.3,135 38.5,78.1 56.2,60.4 95.3,99.4 194.8,0 "/>
<polygon class="st0" points="372.5,171.8 255.3,289 198.5,232.1 216.2,214.4 255.3,253.4 354.8,154 "/>
<polygon class="st0" points="534.5,171.8 417.3,289 360.5,232.1 378.2,214.4 417.3,253.4 516.8,154 "/>
</svg>
